<svg width="170" height="84" viewBox="0 0 170 84" fill="none" xmlns="http://www.w3.org/2000/svg">
<rect width="170" height="84" fill="#F5F5F5"/>
<rect width="170" height="84" fill="white"/>
<path d="M7 32.6389C12.8874 32.6389 20.2712 31.3604 25 35.6389C32.0154 41.9861 33 53.7403 33 62.3611C33 65.1668 33 81.4604 33 70.4167C33 59.1538 31.8864 47.2522 34.5556 36.1944C36.7399 27.1452 37.8363 18.953 43.4444 11.3056C47.8973 5.23354 61.9441 12.6657 65.6667 16.3056C67.6328 18.228 70.6638 20.2478 70.9444 23.1944C71.7369 31.5155 63.313 37.3469 56.5556 39.9167C50.1848 42.3394 43.3966 42.8439 36.6667 43.4167C34.521 43.5993 29.0308 42.5773 28 44.6389" stroke="black" stroke-width="3" stroke-linecap="round"/>
<path d="M75 54.6389C75 52.5472 76.0915 47.0059 73.4444 46.6944C70.4904 46.3469 66.1446 46.079 63.3889 47.1389C56.2789 49.8735 49.3657 58.4179 57.4444 65.0278C62.3242 69.0203 68.2321 65.1838 70.5 60.1944C72.4903 55.8158 74.1964 49.855 75 58.6944C75.067 59.4314 79.014 76.7334 81.5556 72.8056C86.0464 65.8652 85.1681 56.4471 88.7778 49.0833C92.7843 40.9101 95.5695 47.511 97.7778 53.9722C99.1629 58.025 99.8547 75.5025 101.222 63.1944C101.721 58.7088 105.511 41.6389 112 41.6389C121.623 41.6389 126.031 61.0457 127.222 68.1944C127.322 68.7961 128.936 73.0928 128.444 70.4722C127.452 65.1817 128.713 59.9915 129.556 54.75C130.224 50.5908 131.433 47.4248 133.056 43.6389C135.178 38.6872 141.596 46.1109 143.222 47.75C150.485 55.072 152.084 60.8903 155 69.6389" stroke="black" stroke-width="3" stroke-linecap="round"/>
</svg>
