<svg id="pam-svg" width="136" height="82" viewBox="0 0 136 82" fill="none" xmlns="http://www.w3.org/2000/svg">
<path d="M6.40625 78.7812C6.40625 72.3438 6.5 66.2188 6.6875 60.4062C6.9375 54.5938 7.15625 49.0312 7.34375 43.7188C7.53125 38.4062 7.65625 33.3125 7.71875 28.4375C7.78125 23.5 7.625 18.7188 7.25 14.0938C6.9375 14.2812 6.5625 14.5938 6.125 15.0312C5.75 15.4688 5.34375 15.9062 4.90625 16.3438C4.53125 16.7812 4.125 17.1875 3.6875 17.5625C3.25 17.875 2.875 18.0312 2.5625 18.0312C2.0625 18.0312 1.59375 17.8438 1.15625 17.4688C0.78125 17.0312 0.59375 16.5 0.59375 15.875V15.5938C0.59375 15.5312 0.625 15.4375 0.6875 15.3125C1.25 14.625 1.90625 13.5312 2.65625 12.0312C3.46875 10.5312 4.3125 9.03125 5.1875 7.53125C6.125 6.03125 7 4.71875 7.8125 3.59375C8.6875 2.40625 9.4375 1.8125 10.0625 1.8125C10.6875 1.8125 11.1562 1.96875 11.4688 2.28125C11.7812 2.59375 12.0312 2.96875 12.2188 3.40625C12.4688 3.84375 12.6875 4.3125 12.875 4.8125C13.125 5.3125 13.5 5.71875 14 6.03125C16.125 4.78125 18.4375 3.71875 20.9375 2.84375C23.4375 1.90625 25.9375 1.28125 28.4375 0.96875C31 0.59375 33.4688 0.53125 35.8438 0.78125C38.2188 0.96875 40.375 1.53125 42.3125 2.46875C44.3125 3.40625 46 4.75 47.375 6.5C48.75 8.25 49.6562 10.4375 50.0938 13.0625C50.0312 16.5 49.0312 19.7188 47.0938 22.7188C45.1562 25.7188 42.7812 28.4688 39.9688 30.9688C37.1562 33.4062 34.125 35.5938 30.875 37.5312C27.625 39.4062 24.625 41.0625 21.875 42.5C19.125 43.875 16.875 44.9688 15.125 45.7812C13.375 46.5938 12.5625 47.0938 12.6875 47.2812L11.4688 78.5938C11.4688 79.0938 11.25 79.4688 10.8125 79.7188C10.375 79.9062 9.875 80 9.3125 80C8.75 79.9375 8.1875 79.8125 7.625 79.625C7.0625 79.375 6.65625 79.0938 6.40625 78.7812ZM12.6875 40.7188C15.875 39.5312 19.1875 38.1562 22.625 36.5938C26.0625 35.0312 29.2812 33.25 32.2812 31.25C35.2812 29.1875 37.9062 26.875 40.1562 24.3125C42.4688 21.6875 44.0312 18.6875 44.8438 15.3125C44.3438 11.75 42.9375 9.1875 40.625 7.625C38.375 6 35.6562 5.1875 32.4688 5.1875C29.3438 5.125 26 5.78125 22.4375 7.15625C18.9375 8.46875 15.6875 10.3125 12.6875 12.6875V40.7188ZM69.125 79.0625C68.25 77.75 67.6875 76.0312 67.4375 73.9062C67.25 71.7812 67.125 69.5625 67.0625 67.25C67.0625 64.875 67.0625 62.5625 67.0625 60.3125C67.125 58 66.9688 56.0312 66.5938 54.4062C63.6562 60.8438 60.875 65.875 58.25 69.5C55.6875 73.0625 53.3125 75.625 51.125 77.1875C49 78.6875 47.0625 79.375 45.3125 79.25C43.5625 79.0625 42.0625 78.4375 40.8125 77.375C39.625 76.25 38.6875 74.9062 38 73.3438C37.3125 71.7188 36.9375 70.1875 36.875 68.75C36.4375 66.375 36.4062 63.5312 36.7812 60.2188C37.2188 56.8438 37.9375 53.375 38.9375 49.8125C40 46.25 41.3125 42.7812 42.875 39.4062C44.5 35.9688 46.3125 33 48.3125 30.5C50.375 28 52.5625 26.1562 54.875 24.9688C57.1875 23.7188 59.5938 23.5 62.0938 24.3125C63.3438 24.1875 64.375 24.25 65.1875 24.5C66.0625 24.6875 66.7812 25.125 67.3438 25.8125C67.9062 26.5 68.3125 27.4688 68.5625 28.7188C68.8125 29.9062 69 31.4375 69.125 33.3125C69 39.375 69.1562 44.5312 69.5938 48.7812C70.0938 53.0312 70.6562 56.7812 71.2812 60.0312C71.9062 63.2812 72.5 66.2188 73.0625 68.8438C73.6875 71.4688 74.0625 74.1875 74.1875 77C74.1875 78 73.9375 78.7812 73.4375 79.3438C72.9375 79.8438 72.375 80.1562 71.75 80.2812C71.125 80.4688 70.5312 80.4375 69.9688 80.1875C69.4688 79.9375 69.1875 79.5625 69.125 79.0625ZM63.6875 31.7188C62.1875 29.7188 60.5625 28.875 58.8125 29.1875C57.0625 29.5 55.3125 30.5938 53.5625 32.4688C51.875 34.2812 50.25 36.6875 48.6875 39.6875C47.125 42.625 45.7812 45.7812 44.6562 49.1562C43.5312 52.5312 42.6875 55.9062 42.125 59.2812C41.625 62.5938 41.5312 65.5312 41.8438 68.0938C42.7188 70.9062 43.7812 72.5938 45.0312 73.1562C46.2812 73.7188 47.625 73.5312 49.0625 72.5938C50.5 71.5938 51.9688 70.0312 53.4688 67.9062C54.9688 65.7812 56.4062 63.5 57.7812 61.0625C59.1562 58.5625 60.375 56.0938 61.4375 53.6562C62.5625 51.1562 63.4688 49.0625 64.1562 47.375L63.6875 31.7188ZM79.4375 79.1562C79.3125 77.9062 79.1875 75.9062 79.0625 73.1562C79 70.3438 78.9062 67.1562 78.7812 63.5938C78.7188 59.9688 78.6562 56.125 78.5938 52.0625C78.5312 48 78.4062 44.0938 78.2188 40.3438C78.0938 36.5312 77.875 33 77.5625 29.75C77.3125 26.5 77 23.9062 76.625 21.9688C76.625 20.4062 77.0938 19.5312 78.0312 19.3438C79.0312 19.0938 80.1562 19.0938 81.4062 19.3438C81.9688 24.0312 82.3438 28.2812 82.5312 32.0938C82.7812 35.9062 82.9375 39.3125 83 42.3125C83.125 45.25 83.2188 47.8125 83.2812 50C83.4062 52.125 83.625 53.8438 83.9375 55.1562C84.6875 49.3438 85.4688 44.4062 86.2812 40.3438C87.0938 36.2812 87.9375 32.9688 88.8125 30.4062C89.75 27.7812 90.75 25.875 91.8125 24.6875C92.875 23.4375 94.0312 22.7188 95.2812 22.5312C96.4062 22.4062 97.4688 23.3125 98.4688 25.25C99.4688 27.125 100.375 29.5312 101.188 32.4688C102.062 35.4062 102.812 38.5938 103.438 42.0312C104.125 45.4062 104.656 48.5312 105.031 51.4062C107.156 45.0938 108.906 40.0938 110.281 36.4062C111.719 32.7188 112.969 29.9375 114.031 28.0625C115.094 26.125 116.062 24.9062 116.938 24.4062C117.875 23.9062 118.906 23.6875 120.031 23.75C121.531 23.8125 122.719 24.4688 123.594 25.7188C124.531 26.9062 125.25 28.5312 125.75 30.5938C126.25 32.5938 126.594 34.9375 126.781 37.625C127.031 40.25 127.219 43.0312 127.344 45.9688C127.531 48.9062 127.75 51.9062 128 54.9688C128.312 57.9688 128.75 60.8438 129.312 63.5938C129.875 66.3438 130.656 68.9062 131.656 71.2812C132.656 73.5938 134 75.5 135.688 77C135.125 78.125 134.469 79.0938 133.719 79.9062C132.969 80.6562 132.188 80.7812 131.375 80.2812C129.562 79.0938 128.094 77.0938 126.969 74.2812C125.906 71.4062 125.031 68.1562 124.344 64.5312C123.656 60.9062 123.156 57.1562 122.844 53.2812C122.531 49.3438 122.25 45.75 122 42.5C121.75 39.25 121.469 36.5625 121.156 34.4375C120.906 32.3125 120.531 31.2188 120.031 31.1562C118.219 30.9062 116.344 33.75 114.406 39.6875C112.531 45.625 110.062 54.4375 107 66.125C106.688 66.9375 106.312 67.5312 105.875 67.9062C105.438 68.2188 105 68.375 104.562 68.375C104.125 68.375 103.688 68.25 103.25 68C102.812 67.6875 102.438 67.3125 102.125 66.875C101.25 62.125 100.5 57.5625 99.875 53.1875C99.3125 48.8125 98.7812 44.9375 98.2812 41.5625C97.7812 38.1875 97.25 35.4688 96.6875 33.4062C96.1875 31.3438 95.625 30.25 95 30.125C94.4375 30 93.875 30.625 93.3125 32C92.8125 33.3125 92.3125 35.1562 91.8125 37.5312C91.3125 39.8438 90.7812 42.625 90.2188 45.875C89.7188 49.0625 89.1875 52.5 88.625 56.1875C88.0625 59.875 87.4688 63.6875 86.8438 67.625C86.2188 71.5 85.5312 75.3438 84.7812 79.1562C84.5312 79.6562 84.1562 80.0312 83.6562 80.2812C83.1562 80.5938 82.625 80.75 82.0625 80.75C81.5625 80.75 81.0625 80.625 80.5625 80.375C80.0625 80.125 79.6875 79.7188 79.4375 79.1562Z" fill="#C4747C"/>
</svg>
