<svg xmlns="http://www.w3.org/2000/svg" xmlns:xlink="http://www.w3.org/1999/xlink" width="375" viewBox="0 0 375 375" height="375" version="1.0"><defs><clipPath id="a"><path d="M 76.875 0 L 298.125 0 L 298.125 375 L 76.875 375 Z M 76.875 0"/></clipPath><clipPath id="b"><path d="M 294.566406 2.304688 C 265.207031 19.324219 259.09375 19.628906 248.976562 20.132812 C 240.601562 20.550781 230.175781 21.066406 202.863281 30.761719 C 199.332031 32.011719 189.140625 39.015625 186.554688 44.5625 C 185.980469 45.808594 185.199219 47.664062 184.453125 49.460938 C 183.703125 51.257812 182.929688 53.117188 182.347656 54.359375 C 178.902344 61.761719 171.390625 63.199219 163.433594 64.726562 C 159.890625 65.40625 156.238281 66.113281 152.808594 67.363281 C 138.816406 72.464844 127.851562 85.617188 124.871094 100.863281 C 124.578125 102.347656 124.351562 103.882812 124.136719 105.359375 C 123.484375 109.734375 122.816406 114.257812 120.457031 117.828125 C 118.726562 120.457031 116.152344 122.421875 113.671875 124.332031 C 112.929688 124.898438 112.191406 125.46875 111.46875 126.054688 C 97.59375 137.304688 90.058594 157.089844 92.722656 175.300781 C 93.855469 183 96.632812 190.75 99.320312 198.246094 C 104.394531 212.382812 109.628906 226.988281 103.972656 241.757812 L 104.09375 241.808594 C 93.503906 270.375 77.128906 322.855469 76.890625 374.746094 L 78.378906 374.753906 C 78.628906 322.480469 95.328125 269.550781 105.867188 241.320312 C 112.714844 228.460938 128.554688 224.980469 140.277344 225.96875 C 148.425781 226.648438 156.476562 229.015625 164.273438 231.300781 C 169.597656 232.859375 175.097656 234.476562 180.625 235.5625 C 181.882812 235.808594 183.132812 236.011719 184.371094 236.199219 L 184.375 236.609375 L 187.253906 236.574219 C 198.164062 237.78125 208.238281 236.519531 216.695312 232.828125 C 218.851562 231.886719 220.898438 230.769531 222.835938 229.511719 C 222.925781 229.511719 223.007812 229.511719 223.097656 229.503906 L 223.097656 229.347656 C 231.945312 223.511719 238.28125 214.597656 240.207031 204.863281 C 240.746094 202.136719 240.984375 199.25 241.21875 196.464844 C 241.742188 190.175781 242.234375 184.234375 245.859375 179.777344 C 247.222656 178.109375 248.910156 176.820312 250.691406 175.457031 C 251.777344 174.625 252.902344 173.769531 253.941406 172.820312 C 263.613281 163.972656 264.007812 150.566406 264.4375 136.367188 C 264.765625 125.257812 265.109375 113.769531 270.316406 104.730469 C 271.851562 102.0625 273.8125 99.621094 275.722656 97.261719 C 277.640625 94.886719 279.625 92.425781 281.207031 89.707031 C 286.769531 80.117188 284.597656 67.414062 282.5 55.132812 C 281.609375 49.925781 280.769531 45.003906 280.515625 40.398438 C 280.097656 32.773438 282.042969 24.183594 285.863281 16.820312 C 288.3125 12.09375 291.398438 8.402344 294.117188 5.144531 C 294.605469 4.5625 295.085938 3.992188 295.542969 3.429688 L 298.109375 0.253906 Z M 287.371094 10.65625 L 286.238281 10.925781 C 286.261719 10.910156 286.277344 10.890625 286.296875 10.875 L 288.007812 10.453125 C 287.832031 10.695312 287.660156 10.949219 287.496094 11.195312 Z M 249.050781 21.613281 C 249.582031 21.585938 250.109375 21.5625 250.632812 21.53125 C 249.164062 29.433594 247.195312 37.3125 244.765625 44.976562 C 243.757812 45.898438 242.746094 46.824219 241.742188 47.746094 C 244.84375 39.261719 247.292969 30.476562 249.015625 21.613281 C 249.023438 21.621094 249.035156 21.621094 249.050781 21.613281 Z M 281.46875 12.988281 C 281.445312 13.007812 281.414062 13.023438 281.394531 13.046875 C 281.722656 12.328125 282.03125 11.59375 282.300781 10.851562 C 282.382812 10.808594 282.464844 10.769531 282.546875 10.726562 C 282.210938 11.488281 281.847656 12.238281 281.46875 12.988281 Z M 279.976562 14.246094 C 279.945312 14.273438 279.917969 14.296875 279.878906 14.328125 C 280.292969 13.40625 280.671875 12.46875 281.03125 11.527344 C 281.121094 11.480469 281.21875 11.429688 281.308594 11.375 C 280.921875 12.359375 280.472656 13.316406 279.976562 14.246094 Z M 278.53125 15.457031 C 277.691406 16.167969 276.855469 16.875 276.03125 17.578125 C 276.660156 16.207031 277.160156 14.777344 277.535156 13.308594 C 278.34375 12.902344 279.175781 12.476562 280.035156 12.035156 C 279.582031 13.195312 279.078125 14.335938 278.53125 15.457031 Z M 270.269531 24.445312 C 272.75 23.816406 275.273438 23.21875 277.828125 22.949219 C 274.980469 23.480469 272.179688 24.214844 269.4375 25.15625 C 269.714844 24.925781 269.992188 24.6875 270.269531 24.445312 Z M 274.570312 18.820312 C 274.480469 18.894531 274.390625 18.972656 274.300781 19.054688 C 275.011719 17.40625 275.632812 15.714844 276.164062 13.996094 C 276.328125 13.914062 276.496094 13.839844 276.660156 13.757812 C 276.15625 15.511719 275.453125 17.203125 274.570312 18.820312 Z M 272.972656 20.183594 C 272.964844 20.191406 272.960938 20.199219 272.953125 20.207031 C 273.707031 18.460938 274.261719 16.632812 274.597656 14.753906 C 274.816406 14.648438 275.027344 14.550781 275.25 14.445312 C 274.605469 16.402344 273.851562 18.320312 272.972656 20.183594 Z M 271.714844 21.089844 C 272.472656 19.164062 273.125 17.1875 273.65625 15.195312 C 273.691406 15.179688 273.722656 15.160156 273.761719 15.144531 C 273.339844 17.21875 272.652344 19.210938 271.714844 21.089844 Z M 270.359375 22.410156 C 269.199219 23.40625 268.046875 24.394531 266.898438 25.382812 C 268.152344 22.648438 269.148438 19.800781 269.878906 16.890625 C 270.792969 16.5 271.761719 16.074219 272.765625 15.609375 C 272.121094 17.921875 271.320312 20.199219 270.359375 22.410156 Z M 265.5 26.59375 C 265.15625 26.894531 264.800781 27.195312 264.464844 27.496094 C 265.941406 24.296875 267.183594 20.976562 268.171875 17.601562 C 268.457031 17.488281 268.734375 17.375 269.027344 17.253906 C 268.171875 20.476562 266.988281 23.605469 265.5 26.59375 Z M 263.042969 28.722656 C 262.824219 28.910156 262.617188 29.097656 262.398438 29.285156 C 263.902344 25.777344 265.109375 22.148438 265.992188 18.4375 C 266.414062 18.28125 266.839844 18.125 267.28125 17.953125 C 266.164062 21.644531 264.75 25.261719 263.042969 28.722656 Z M 261.074219 30.4375 C 260.773438 30.699219 260.464844 30.960938 260.167969 31.222656 L 264.277344 19.046875 C 264.5625 18.949219 264.855469 18.851562 265.148438 18.746094 C 264.167969 22.753906 262.796875 26.679688 261.074219 30.4375 Z M 259.058594 32.207031 C 258.847656 32.386719 258.636719 32.574219 258.4375 32.753906 C 260.023438 28.46875 261.363281 24.070312 262.421875 19.636719 C 262.742188 19.539062 263.074219 19.441406 263.410156 19.332031 Z M 254.136719 36.542969 C 256.152344 31.945312 257.828125 27.1875 259.132812 22.339844 C 258.03125 27.121094 256.464844 31.785156 254.453125 36.257812 C 254.347656 36.355469 254.242188 36.453125 254.136719 36.542969 Z M 248.453125 43.636719 C 258.316406 40.011719 268.578125 37.5 279.003906 36.175781 C 278.964844 36.945312 278.949219 37.71875 278.949219 38.472656 C 267.515625 39.664062 256.277344 42.300781 245.507812 46.308594 C 246.488281 45.417969 247.472656 44.527344 248.453125 43.636719 Z M 244.039062 47.648438 C 255.261719 43.304688 266.996094 40.472656 278.957031 39.222656 C 278.964844 39.644531 278.980469 40.0625 279.003906 40.472656 C 279.019531 40.8125 279.046875 41.15625 279.078125 41.5 C 267.058594 42.375 255.140625 44.585938 243.597656 48.054688 C 243.75 47.917969 243.898438 47.785156 244.039062 47.648438 Z M 279.054688 35.410156 C 269.566406 36.609375 260.195312 38.773438 251.148438 41.875 C 260.023438 37.742188 269.429688 35.058594 279.191406 33.898438 C 279.136719 34.40625 279.09375 34.910156 279.054688 35.410156 Z M 279.273438 33.132812 C 269.617188 34.265625 260.292969 36.871094 251.484375 40.894531 C 252.242188 40.21875 253 39.539062 253.753906 38.863281 C 261.972656 35.671875 270.5625 33.578125 279.332031 32.632812 C 279.308594 32.804688 279.289062 32.96875 279.273438 33.132812 Z M 279.445312 31.875 C 271.199219 32.753906 263.101562 34.632812 255.320312 37.484375 C 255.644531 37.203125 255.972656 36.910156 256.292969 36.617188 C 263.875 34.085938 271.699219 32.167969 279.585938 30.910156 C 279.535156 31.230469 279.492188 31.554688 279.445312 31.875 Z M 257.261719 33.777344 C 256.765625 34.210938 256.273438 34.648438 255.777344 35.089844 C 257.808594 30.304688 259.34375 25.308594 260.347656 20.207031 C 260.75 20.101562 261.164062 19.996094 261.589844 19.878906 C 260.449219 24.589844 258.996094 29.253906 257.261719 33.777344 Z M 256.683594 27.855469 C 257.34375 25.488281 257.875 23.089844 258.300781 20.664062 C 258.472656 20.625 258.644531 20.597656 258.816406 20.558594 C 258.195312 23.015625 257.484375 25.449219 256.683594 27.855469 Z M 252.09375 38.363281 C 251.898438 38.535156 251.710938 38.707031 251.523438 38.871094 C 253.949219 33.105469 255.367188 26.957031 256.699219 20.949219 C 256.96875 20.902344 257.246094 20.859375 257.523438 20.804688 C 256.4375 26.867188 254.609375 32.753906 252.09375 38.363281 Z M 250.160156 40.09375 C 249.53125 40.660156 248.902344 41.222656 248.273438 41.792969 C 251.140625 35.1875 253.296875 28.28125 254.699219 21.21875 C 255.097656 21.171875 255.5 21.128906 255.90625 21.066406 C 254.480469 27.480469 252.929688 34.046875 250.160156 40.09375 Z M 247.164062 42.4375 C 250.046875 35.628906 252.28125 28.535156 253.824219 21.308594 C 253.859375 21.308594 253.890625 21.300781 253.925781 21.300781 C 252.460938 28.574219 250.191406 35.664062 247.164062 42.4375 Z M 246.257812 42.652344 C 248.355469 35.710938 250.070312 28.609375 251.386719 21.488281 C 251.941406 21.457031 252.488281 21.414062 253.042969 21.375 C 251.476562 28.664062 249.203125 35.808594 246.257812 42.652344 Z M 240.542969 48.855469 C 239.53125 49.792969 238.527344 50.726562 237.53125 51.65625 C 241.855469 42.167969 244.753906 32.128906 246.121094 21.773438 C 246.847656 21.726562 247.5625 21.691406 248.25 21.652344 C 246.4375 30.894531 243.847656 40.039062 240.542969 48.855469 Z M 236.109375 52.988281 C 233.152344 55.769531 230.253906 58.546875 227.382812 61.339844 C 232.617188 49.320312 235.34375 36.160156 235.300781 23.058594 C 239.335938 22.339844 242.542969 22.019531 245.367188 21.824219 C 243.914062 32.648438 240.796875 43.125 236.109375 52.988281 Z M 225.921875 62.757812 C 220.882812 67.699219 215.96875 72.671875 211.136719 77.742188 C 216.941406 61.777344 218.890625 44.554688 216.816406 27.683594 C 224.199219 25.417969 229.90625 24.042969 234.542969 23.1875 C 234.582031 36.773438 231.601562 50.414062 225.921875 62.757812 Z M 233.324219 57.679688 C 248.632812 53.164062 265.019531 51.980469 280.816406 54.25 C 280.875 54.621094 280.941406 54.996094 281.011719 55.371094 C 281.101562 55.882812 281.183594 56.390625 281.273438 56.898438 C 266.691406 53.140625 251.277344 56.554688 237.636719 59.582031 C 234.777344 60.21875 231.839844 60.871094 229.007812 61.84375 C 230.433594 60.449219 231.871094 59.0625 233.324219 57.679688 Z M 234.492188 56.5625 C 235.382812 55.714844 236.273438 54.871094 237.171875 54.023438 C 251.285156 50.40625 265.777344 49.371094 280.269531 50.960938 C 280.402344 51.792969 280.546875 52.628906 280.6875 53.484375 C 265.328125 51.304688 249.433594 52.367188 234.492188 56.5625 Z M 238.304688 52.976562 C 238.5 52.796875 238.6875 52.617188 238.878906 52.4375 C 251.5625 46.660156 265.507812 44.113281 279.421875 45.042969 C 279.625 46.726562 279.871094 48.449219 280.148438 50.203125 C 266.082031 48.683594 252.015625 49.613281 238.304688 52.976562 Z M 240.511719 50.90625 C 241.121094 50.339844 241.742188 49.777344 242.355469 49.207031 C 254.300781 45.492188 266.660156 43.148438 279.128906 42.242188 C 279.191406 42.917969 279.257812 43.605469 279.332031 44.292969 C 266.046875 43.433594 252.738281 45.703125 240.511719 50.90625 Z M 279.730469 30.136719 C 272.285156 31.308594 264.890625 33.066406 257.710938 35.375 C 258.40625 34.757812 259.117188 34.136719 259.820312 33.515625 C 266.390625 30.925781 273.242188 29.023438 280.210938 27.855469 C 280.03125 28.609375 279.871094 29.375 279.730469 30.136719 Z M 280.398438 27.058594 C 273.941406 28.125 267.582031 29.808594 261.441406 32.085938 C 262.179688 31.441406 262.921875 30.789062 263.671875 30.144531 C 269.140625 28.316406 274.808594 27.082031 280.546875 26.476562 C 280.492188 26.671875 280.449219 26.867188 280.398438 27.058594 Z M 280.761719 25.703125 C 275.453125 26.242188 270.203125 27.316406 265.109375 28.894531 C 265.199219 28.820312 265.289062 28.738281 265.378906 28.664062 C 270.503906 26.96875 275.769531 25.621094 281.070312 24.632812 C 280.964844 24.984375 280.859375 25.34375 280.761719 25.703125 Z M 281.324219 23.824219 C 276.425781 24.722656 271.558594 25.945312 266.800781 27.433594 C 267.15625 27.136719 267.5 26.835938 267.851562 26.527344 C 272.261719 24.835938 276.867188 23.695312 281.558594 23.128906 C 281.476562 23.359375 281.398438 23.59375 281.324219 23.824219 Z M 281.910156 22.109375 C 278.390625 21.890625 274.839844 22.566406 271.527344 23.367188 C 271.851562 23.089844 272.171875 22.8125 272.496094 22.535156 C 276.171875 21.734375 279.28125 21.367188 282.171875 21.398438 C 282.089844 21.636719 281.992188 21.871094 281.910156 22.109375 Z M 273.679688 21.53125 C 273.835938 21.398438 274 21.261719 274.15625 21.121094 C 276.988281 20.417969 279.894531 19.976562 282.808594 19.800781 C 282.6875 20.085938 282.570312 20.371094 282.457031 20.65625 C 279.789062 20.609375 276.953125 20.894531 273.679688 21.53125 Z M 283.128906 19.039062 C 280.53125 19.171875 277.941406 19.519531 275.402344 20.070312 C 275.632812 19.871094 275.863281 19.675781 276.097656 19.480469 C 278.488281 18.949219 280.929688 18.625 283.378906 18.507812 C 283.296875 18.679688 283.210938 18.859375 283.128906 19.039062 Z M 283.722656 17.734375 C 281.558594 17.824219 279.398438 18.070312 277.265625 18.476562 C 277.625 18.167969 277.992188 17.863281 278.351562 17.554688 C 280.261719 17.144531 282.203125 16.910156 284.140625 16.867188 C 284.007812 17.160156 283.863281 17.441406 283.722656 17.734375 Z M 279.535156 16.566406 C 279.746094 16.394531 279.945312 16.222656 280.148438 16.042969 C 281.738281 15.636719 283.371094 15.367188 285.003906 15.242188 C 284.84375 15.53125 284.679688 15.816406 284.523438 16.117188 C 282.84375 16.140625 281.183594 16.28125 279.535156 16.566406 Z M 284.492188 9.675781 C 284.582031 9.625 284.671875 9.578125 284.761719 9.527344 L 284.214844 10.671875 C 284.117188 10.753906 284.027344 10.828125 283.933594 10.910156 Z M 285.917969 9.257812 C 285.8125 9.347656 285.699219 9.4375 285.59375 9.527344 L 285.886719 8.917969 C 285.976562 8.867188 286.066406 8.824219 286.15625 8.769531 Z M 288.386719 9.773438 C 288.433594 9.765625 288.476562 9.75 288.523438 9.742188 C 288.484375 9.796875 288.449219 9.839844 288.417969 9.894531 Z M 288.605469 8.964844 L 288.574219 8.972656 C 288.664062 8.898438 288.746094 8.824219 288.835938 8.753906 L 289.371094 8.621094 C 289.144531 8.914062 288.925781 9.203125 288.703125 9.503906 Z M 289.714844 8.019531 C 289.820312 7.929688 289.929688 7.839844 290.035156 7.75 C 289.9375 7.878906 289.839844 8 289.742188 8.125 Z M 203.355469 32.160156 C 208.097656 30.476562 212.3125 29.082031 216.105469 27.90625 C 218.207031 45.199219 216.050781 62.855469 209.828125 79.128906 C 204.171875 85.113281 198.628906 91.234375 193.140625 97.585938 C 196.25 78.042969 196.390625 58.21875 193.558594 38.617188 C 197.070312 35.582031 201.199219 32.933594 203.355469 32.160156 Z M 283.003906 78.753906 C 254.96875 81.273438 226.902344 85.914062 199.535156 92.550781 C 201.027344 90.882812 202.515625 89.226562 204.015625 87.578125 C 218.140625 82.253906 233.519531 80.066406 248.085938 78.296875 C 259.730469 76.882812 271.542969 75.632812 283.210938 74.574219 C 283.210938 76 283.144531 77.390625 283.003906 78.753906 Z M 192.886719 39.214844 C 195.695312 58.980469 195.46875 78.972656 192.210938 98.671875 C 191.253906 99.785156 190.300781 100.902344 189.34375 102.027344 C 192.390625 82.335938 192.511719 62.359375 189.664062 42.617188 L 189.589844 42.632812 C 190.503906 41.5 191.640625 40.339844 192.886719 39.214844 Z M 187.90625 45.191406 C 188.175781 44.609375 188.554688 43.996094 189.019531 43.367188 C 191.820312 63.234375 191.621094 83.332031 188.421875 103.132812 C 187.328125 104.429688 186.242188 105.734375 185.15625 107.050781 C 186.734375 88.433594 186.832031 69.585938 185.449219 50.960938 C 185.574219 50.652344 185.703125 50.347656 185.828125 50.039062 C 186.570312 48.257812 187.335938 46.414062 187.90625 45.191406 Z M 176.199219 117.816406 L 176.664062 111.089844 C 176.9375 107.105469 177.222656 102.984375 177.359375 98.925781 C 177.769531 86.820312 176.917969 74.5625 176.078125 62.6875 C 176.289062 62.585938 176.503906 62.488281 176.714844 62.375 C 178.75 80.558594 178.757812 98.976562 176.738281 117.164062 C 176.558594 117.378906 176.378906 117.597656 176.199219 117.816406 Z M 174.25 96.960938 C 173.921875 90.265625 173.238281 83.285156 172.445312 75.757812 C 172.078125 72.269531 171.660156 68.328125 170.222656 64.792969 C 170.558594 64.703125 170.886719 64.621094 171.21875 64.53125 C 173.34375 75.128906 174.355469 86.050781 174.25 96.960938 Z M 171.710938 75.832031 C 172.992188 88.019531 173.972656 98.753906 173.667969 109.179688 C 173.261719 113.816406 172.648438 118.429688 171.832031 122.984375 C 171.539062 123.328125 171.246094 123.671875 170.953125 124.015625 C 174.054688 104.578125 173.300781 84.289062 168.714844 65.160156 C 168.976562 65.101562 169.238281 65.042969 169.496094 64.972656 C 170.925781 68.433594 171.320312 72.195312 171.710938 75.832031 Z M 172.078125 100.3125 C 171.929688 88.550781 170.304688 76.808594 167.203125 65.496094 C 167.464844 65.445312 167.726562 65.386719 167.988281 65.324219 C 170.714844 76.71875 172.078125 88.523438 172.078125 100.3125 Z M 169.261719 126 C 168.804688 126.539062 168.339844 127.085938 167.875 127.625 C 174.585938 102.371094 168.230469 74.53125 165.855469 65.765625 C 166.0625 65.730469 166.265625 65.683594 166.46875 65.640625 C 171.839844 85.1875 172.804688 106.046875 169.261719 126 Z M 168.761719 128.882812 C 169.921875 127.519531 171.089844 126.144531 172.273438 124.757812 C 202.390625 116.804688 233.359375 114.488281 264.332031 117.875 C 264.023438 119.679688 263.792969 121.515625 263.613281 123.371094 C 235.601562 122.539062 207.3125 123.949219 179.523438 127.574219 C 175.660156 128.074219 171.867188 128.621094 168.175781 129.582031 C 168.371094 129.347656 168.566406 129.117188 168.761719 128.882812 Z M 174.40625 109.214844 C 175.710938 94.238281 174.878906 78.964844 171.929688 64.316406 C 172.421875 64.164062 172.910156 64 173.390625 63.835938 C 174.117188 72.785156 174.730469 81.855469 175.210938 90.820312 C 175.402344 94.445312 175.589844 98.304688 175.570312 102.085938 C 175.53125 107.769531 175.023438 113.636719 174.039062 119.507812 L 174.394531 119.566406 C 174.378906 119.71875 174.355469 119.867188 174.339844 120.015625 C 174.035156 120.375 173.734375 120.734375 173.433594 121.085938 C 173.980469 117.125 174.289062 113.191406 174.40625 109.214844 Z M 175.957031 90.769531 C 175.515625 82.613281 174.960938 74.359375 174.324219 66.195312 C 175.410156 74.753906 175.972656 83.367188 176.027344 91.988281 C 175.996094 91.578125 175.980469 91.171875 175.957031 90.769531 Z M 174.683594 63.324219 C 174.910156 63.234375 175.132812 63.144531 175.359375 63.042969 C 175.839844 69.886719 176.316406 76.859375 176.558594 83.855469 C 176.265625 76.996094 175.636719 70.140625 174.683594 63.324219 Z M 175.621094 115.386719 L 175.390625 118.78125 C 175.335938 118.847656 175.277344 118.90625 175.222656 118.976562 C 175.359375 117.785156 175.492188 116.585938 175.621094 115.386719 Z M 177.417969 61.960938 C 177.597656 61.859375 177.785156 61.753906 177.957031 61.640625 C 179.703125 77.011719 179.832031 92.535156 178.339844 107.929688 C 179.449219 92.617188 179.140625 77.203125 177.417969 61.960938 Z M 179.015625 64.472656 C 181.199219 81.1875 181.042969 98.09375 178.535156 114.789062 L 178.714844 114.820312 C 178.558594 115.003906 178.398438 115.191406 178.242188 115.378906 C 180.445312 98.503906 180.707031 81.398438 179.015625 64.472656 Z M 179.230469 60.710938 C 179.523438 60.480469 179.816406 60.234375 180.09375 59.976562 C 180.578125 68.050781 181.015625 76.238281 181.378906 84.34375 C 181.769531 92.992188 182.257812 103.757812 179.589844 113.558594 L 179.726562 113.597656 C 179.613281 113.734375 179.5 113.867188 179.386719 114.003906 C 181.964844 96.304688 181.90625 78.386719 179.230469 60.710938 Z M 182.234375 86.769531 C 182.195312 85.9375 182.160156 85.113281 182.128906 84.3125 C 181.792969 76.914062 181.402344 69.4375 180.960938 62.050781 C 182.070312 70.132812 182.382812 78.320312 182.234375 86.769531 Z M 180.929688 111.195312 C 180.902344 111.546875 180.878906 111.898438 180.847656 112.25 C 180.773438 112.339844 180.699219 112.429688 180.625 112.519531 C 180.730469 112.078125 180.835938 111.636719 180.929688 111.195312 Z M 181.230469 58.816406 C 181.5625 58.433594 181.882812 58.03125 182.183594 57.605469 C 183.917969 75.039062 185.574219 93.023438 182.234375 110.535156 L 182.265625 110.542969 C 182.070312 110.78125 181.867188 111.019531 181.671875 111.261719 C 183.101562 92.515625 183.964844 75.519531 181.230469 58.816406 Z M 184.796875 52.480469 C 186.09375 70.941406 185.941406 89.613281 184.324219 108.046875 C 184.183594 108.226562 184.03125 108.398438 183.890625 108.570312 C 183.648438 108.863281 183.417969 109.140625 183.179688 109.433594 C 186.285156 91.898438 184.5625 73.976562 182.832031 56.609375 C 183.140625 56.097656 183.441406 55.558594 183.703125 54.980469 C 184.023438 54.292969 184.398438 53.425781 184.796875 52.480469 Z M 163.71875 66.1875 C 164.191406 66.097656 164.65625 66.007812 165.121094 65.917969 C 167.515625 74.753906 174.09375 103.464844 166.722656 128.988281 C 164.933594 131.09375 163.164062 133.175781 161.421875 135.234375 C 165.734375 112.757812 165.238281 89.203125 159.953125 66.9375 C 161.21875 66.667969 162.476562 66.425781 163.71875 66.1875 Z M 157.90625 139.40625 C 159.144531 115.671875 158.230469 91.710938 155.1875 68.140625 C 156.515625 67.738281 157.871094 67.398438 159.234375 67.09375 C 164.597656 89.683594 165.023438 113.621094 160.453125 136.382812 C 159.601562 137.394531 158.753906 138.402344 157.90625 139.40625 Z M 153.324219 68.757812 C 153.707031 68.621094 154.085938 68.488281 154.46875 68.367188 C 157.53125 92.175781 158.425781 116.382812 157.121094 140.359375 C 156.148438 141.527344 155.1875 142.6875 154.230469 143.839844 C 155.511719 119.3125 153.832031 94.671875 149.21875 70.539062 C 150.550781 69.863281 151.921875 69.265625 153.324219 68.757812 Z M 126.339844 101.148438 C 128.871094 88.199219 137.355469 76.816406 148.53125 70.898438 C 153.167969 95.226562 154.8125 120.082031 153.4375 144.816406 C 144.769531 155.382812 136.839844 165.816406 129.8125 177.296875 C 132.359375 154.898438 130.675781 131.707031 124.898438 109.933594 C 125.175781 108.488281 125.394531 107.027344 125.613281 105.582031 C 125.828125 104.109375 126.054688 102.59375 126.339844 101.148438 Z M 145.757812 156.972656 C 172.871094 146.613281 220.875 141.738281 262.585938 145.09375 C 262.195312 151.519531 261.371094 157.570312 259.132812 162.820312 L 259.179688 162.5 C 243.058594 160.15625 219.503906 161.21875 189.175781 165.652344 C 163.890625 169.351562 150.941406 172.4375 130.039062 179.800781 C 134.847656 171.765625 140.097656 164.25 145.730469 156.890625 Z M 121.703125 118.644531 C 123.125 116.488281 123.972656 114.070312 124.554688 111.558594 C 130.136719 133.355469 131.625 156.515625 128.878906 178.835938 C 126.429688 182.917969 124.097656 187.132812 121.890625 191.535156 C 123.925781 168.753906 122.257812 145.945312 116.902344 123.679688 C 118.683594 122.226562 120.390625 120.628906 121.703125 118.644531 Z M 238.894531 203.574219 C 207.234375 203.609375 175.292969 205.878906 143.945312 210.320312 C 134.328125 211.683594 123.273438 213.4375 112.855469 217.03125 C 113.15625 216.148438 113.464844 215.28125 113.769531 214.410156 C 154.933594 204.734375 197.230469 199.445312 239.507812 198.683594 C 239.359375 200.332031 239.171875 201.976562 238.894531 203.574219 Z M 134.621094 224.359375 C 129.828125 224.542969 124.75 225.449219 120.015625 227.332031 C 116.203125 228.050781 112.4375 229.082031 108.789062 230.410156 C 108.863281 230.125 108.945312 229.847656 109.027344 229.5625 C 113.875 227.789062 118.902344 226.386719 123.964844 225.390625 C 128.425781 224.515625 132.980469 223.953125 137.527344 223.535156 C 136.554688 223.796875 135.585938 224.074219 134.621094 224.359375 Z M 93.90625 163.007812 C 98.5 176.84375 101.667969 191.28125 104.722656 205.273438 L 104.828125 205.761719 C 103.410156 200.464844 101.921875 195.214844 100.453125 190.039062 L 93.703125 166.28125 C 93.742188 165.1875 93.808594 164.101562 93.90625 163.007812 Z M 94.402344 159.21875 C 100.609375 177.441406 105.066406 196.269531 107.679688 215.347656 L 105.449219 205.117188 C 102.28125 190.585938 98.992188 175.5625 94.101562 161.21875 C 94.191406 160.550781 94.289062 159.886719 94.402344 159.21875 Z M 120.398438 198.054688 C 120.5625 198 120.726562 197.957031 120.898438 197.910156 C 120.726562 197.976562 120.546875 198.046875 120.375 198.113281 C 120.382812 198.089844 120.390625 198.066406 120.398438 198.054688 Z M 119.941406 199.070312 C 125.15625 196.988281 130.601562 195.65625 137.144531 194.316406 C 137.242188 194.292969 137.347656 194.277344 137.445312 194.253906 C 131.835938 195.882812 126.21875 197.648438 120.601562 199.550781 C 120.269531 199.632812 119.941406 199.714844 119.613281 199.804688 C 119.722656 199.558594 119.835938 199.320312 119.941406 199.070312 Z M 135.699219 193.859375 C 142.546875 192.136719 149.390625 190.617188 156.296875 189.296875 C 152.910156 190.097656 149.527344 190.945312 146.125 191.84375 C 143.078125 192.390625 140.035156 192.960938 136.996094 193.589844 C 136.554688 193.679688 136.128906 193.769531 135.699219 193.859375 Z M 158.835938 195.183594 C 159.628906 195.085938 160.425781 194.980469 161.226562 194.886719 C 156.425781 195.558594 151.609375 196.300781 146.800781 197.078125 C 148.066406 196.792969 149.339844 196.519531 150.605469 196.253906 C 153.332031 195.882812 156.074219 195.527344 158.835938 195.183594 Z M 146.507812 197.875 C 139.160156 199.355469 131.859375 201.132812 124.644531 203.296875 C 128.808594 201.871094 133.003906 200.601562 137.226562 199.453125 C 140.320312 198.90625 143.414062 198.382812 146.507812 197.875 Z M 128.878906 200.136719 C 132.816406 199.207031 136.800781 198.425781 140.816406 197.746094 C 139.574219 198.0625 138.328125 198.382812 137.09375 198.71875 C 134.148438 199.242188 131.199219 199.785156 128.253906 200.34375 C 128.457031 200.277344 128.667969 200.203125 128.878906 200.136719 Z M 150.457031 195.527344 C 145.738281 196.179688 141.0625 196.898438 136.433594 197.777344 C 142.898438 195.867188 149.414062 194.234375 155.96875 192.832031 C 184.070312 188.175781 212.457031 186.503906 240.761719 187.859375 C 240.746094 187.917969 240.730469 187.980469 240.722656 188.039062 C 210.785156 188.652344 180.136719 189.351562 150.457031 195.527344 Z M 199.042969 190.21875 C 187.269531 191.132812 175.890625 192.359375 165.238281 193.648438 C 176.4375 191.957031 187.730469 190.898438 199.042969 190.21875 Z M 240.917969 187.117188 C 235.097656 186.839844 229.269531 186.699219 223.453125 186.667969 C 229.390625 186.421875 235.308594 186.210938 241.195312 186.003906 C 241.089844 186.375 241 186.742188 240.917969 187.117188 Z M 134.726562 196.144531 C 140.5625 194.480469 146.246094 192.976562 151.789062 191.613281 C 163.03125 189.746094 174.316406 188.324219 185.589844 187.199219 C 176.765625 188.265625 167.953125 189.632812 159.1875 191.402344 C 150.980469 192.660156 142.816406 194.21875 134.726562 196.144531 Z M 118.992188 201.199219 C 123.800781 199.714844 128.644531 198.382812 133.519531 197.191406 C 136.507812 196.523438 139.511719 195.894531 142.507812 195.296875 C 137.902344 196.523438 133.320312 197.882812 128.765625 199.386719 C 125.335938 200.195312 121.925781 201.117188 118.554688 202.1875 C 118.707031 201.859375 118.847656 201.527344 118.992188 201.199219 Z M 118.175781 203.101562 C 118.339844 203.0625 118.503906 203.035156 118.667969 203.003906 C 118.488281 203.070312 118.308594 203.140625 118.128906 203.207031 C 118.144531 203.175781 118.160156 203.140625 118.175781 203.101562 Z M 117.730469 204.15625 C 119.582031 203.4375 121.441406 202.742188 123.296875 202.074219 C 125.527344 201.632812 127.761719 201.199219 129.992188 200.78125 C 125.730469 202.097656 121.5 203.558594 117.304688 205.183594 C 117.441406 204.839844 117.589844 204.5 117.730469 204.15625 Z M 116.914062 206.128906 C 117.019531 206.089844 117.125 206.042969 117.230469 206.007812 L 117.363281 206.40625 C 156.902344 192.953125 199.214844 191.835938 240.132812 190.75 L 240.109375 190.007812 C 224.949219 190.414062 209.601562 190.816406 194.269531 191.851562 C 209.804688 190.472656 225.21875 189.679688 240.453125 189.484375 C 240.355469 190.105469 240.265625 190.734375 240.191406 191.363281 C 210.546875 191.785156 185.230469 194.082031 155.863281 199.019531 C 142.386719 201.28125 130.914062 203.691406 115.957031 208.523438 C 116.277344 207.722656 116.59375 206.921875 116.914062 206.128906 Z M 112.152344 214.546875 C 111.464844 191.066406 106.796875 168.078125 98.265625 146.171875 C 98.941406 144.628906 99.679688 143.113281 100.492188 141.648438 C 102.152344 144.914062 103.800781 148.484375 104.917969 152.542969 C 110.101562 171.320312 113.148438 190.488281 113.980469 209.519531 C 113.359375 211.167969 112.742188 212.84375 112.152344 214.546875 Z M 109.140625 210.390625 C 109.621094 213.429688 110.070312 216.46875 110.480469 219.519531 C 110.414062 219.722656 110.347656 219.921875 110.289062 220.125 C 109.957031 216.867188 109.574219 213.625 109.140625 210.390625 Z M 110.894531 223.136719 C 114.054688 222.402344 117.222656 221.730469 120.398438 221.097656 C 117.066406 222.019531 113.777344 223.085938 110.535156 224.3125 C 110.660156 223.914062 110.773438 223.527344 110.894531 223.136719 Z M 111.140625 222.3125 C 111.148438 222.3125 111.148438 222.3125 111.140625 222.3125 C 111.164062 222.296875 111.179688 222.289062 111.199219 222.273438 L 111.449219 222.246094 C 111.351562 222.269531 111.246094 222.289062 111.140625 222.3125 Z M 111.457031 216.53125 C 111.386719 216.71875 111.328125 216.898438 111.261719 217.09375 C 110.292969 193.964844 105.433594 171.359375 96.804688 149.855469 C 97.128906 148.941406 97.472656 148.042969 97.839844 147.152344 C 106.40625 169.382812 110.984375 192.707031 111.457031 216.53125 Z M 110.316406 213.09375 C 107.195312 192.429688 102.46875 171.921875 96.230469 152.003906 L 96.085938 152.050781 C 96.199219 151.683594 96.320312 151.316406 96.4375 150.949219 C 104.339844 170.871094 109 191.738281 110.316406 213.09375 Z M 100.183594 168.304688 C 98.769531 163.457031 97.230469 158.65625 95.554688 153.894531 C 95.628906 153.625 95.695312 153.355469 95.78125 153.085938 C 97.34375 158.125 98.8125 163.195312 100.183594 168.304688 Z M 109.710938 221.921875 C 109.597656 222.28125 109.492188 222.640625 109.382812 223 C 106.925781 200.785156 101.980469 178.839844 94.671875 157.710938 C 94.835938 156.867188 95.015625 156.027344 95.21875 155.195312 C 102.691406 176.765625 107.5625 199.199219 109.710938 221.921875 Z M 107.433594 235.652344 L 108.121094 235.464844 C 107.816406 235.816406 107.515625 236.175781 107.214844 236.542969 C 107.292969 236.242188 107.359375 235.945312 107.433594 235.652344 Z M 109.082031 234.429688 L 107.644531 234.820312 C 107.75 234.394531 107.859375 233.972656 107.972656 233.546875 C 109.015625 233.179688 110.070312 232.835938 111.132812 232.527344 C 110.414062 233.128906 109.734375 233.765625 109.082031 234.429688 Z M 112.648438 231.351562 C 111.148438 231.734375 109.65625 232.175781 108.191406 232.6875 C 108.308594 232.222656 108.429688 231.75 108.550781 231.292969 C 111.253906 230.289062 114.023438 229.441406 116.839844 228.777344 C 115.386719 229.519531 113.980469 230.378906 112.648438 231.351562 Z M 123.820312 224.664062 C 118.894531 225.628906 114.003906 226.992188 109.277344 228.695312 C 109.417969 228.191406 109.5625 227.683594 109.703125 227.179688 L 109.742188 227.316406 C 117.410156 225.085938 125.417969 223.96875 132.957031 223.015625 C 138.097656 222.371094 143.257812 221.78125 148.417969 221.234375 C 146.328125 221.570312 144.246094 221.960938 142.171875 222.417969 C 136.042969 222.859375 129.867188 223.480469 123.820312 224.664062 Z M 233.179688 217.445312 C 216.015625 217.839844 198.277344 218.246094 180.757812 218.785156 C 178.136719 218.867188 175.457031 218.949219 172.730469 219.054688 C 192.976562 217.5625 213.300781 216.867188 233.511719 216.980469 C 233.40625 217.136719 233.285156 217.285156 233.179688 217.445312 Z M 232.648438 218.199219 C 232.257812 218.734375 231.855469 219.257812 231.433594 219.773438 L 231.449219 219.09375 C 204.21875 218.554688 176.59375 220.253906 149.878906 221.902344 C 149.363281 221.929688 148.835938 221.96875 148.3125 222 C 159.390625 220.1875 170.550781 219.839844 180.773438 219.527344 C 198.105469 218.996094 215.65625 218.589844 232.648438 218.199219 Z M 132.863281 222.273438 C 126.226562 223.113281 119.230469 224.074219 112.40625 225.808594 C 115.148438 224.875 118.089844 224.296875 121.273438 223.742188 C 158.613281 217.167969 196.757812 214.269531 234.664062 215.136719 C 234.445312 215.503906 234.214844 215.871094 233.988281 216.238281 C 200.300781 216.035156 166.28125 218.066406 132.863281 222.273438 Z M 121.140625 223.007812 C 117.09375 223.722656 113.433594 224.449219 110.054688 225.90625 C 110.121094 225.667969 110.199219 225.445312 110.265625 225.203125 C 128.855469 218.058594 149.4375 216.417969 167.34375 215.46875 C 190.03125 214.261719 213.117188 213.925781 235.488281 213.609375 C 235.351562 213.871094 235.210938 214.132812 235.066406 214.394531 C 196.988281 213.503906 158.65625 216.402344 121.140625 223.007812 Z M 235.890625 212.867188 C 216.703125 213.128906 196.988281 213.421875 177.441406 214.253906 C 197.042969 213.101562 216.65625 212.875 235.980469 212.671875 C 235.953125 212.734375 235.921875 212.800781 235.890625 212.867188 Z M 236.320312 211.925781 C 195.101562 212.359375 152.53125 212.875 111.582031 222.214844 C 111.574219 222.164062 111.566406 222.109375 111.558594 222.058594 C 116.804688 219.070312 123.027344 217.878906 128.972656 216.921875 C 165.488281 211.054688 202.269531 210.605469 236.859375 210.679688 C 236.699219 211.101562 236.511719 211.511719 236.320312 211.925781 Z M 173.21875 211.40625 C 194.699219 209.78125 216.351562 208.671875 237.800781 208.097656 C 237.605469 208.71875 237.390625 209.324219 237.15625 209.941406 C 216.464844 209.894531 194.976562 210.035156 173.21875 211.40625 Z M 131.6875 215.757812 C 137.40625 214.777344 143.203125 214.058594 149.0625 213.46875 C 143.273438 214.113281 137.484375 214.875 131.6875 215.757812 Z M 111.476562 221.265625 C 111.546875 221.0625 111.613281 220.859375 111.671875 220.648438 C 112.765625 220.28125 113.859375 219.9375 114.960938 219.609375 C 113.761719 220.097656 112.601562 220.640625 111.476562 221.265625 Z M 239.71875 196.339844 C 239.675781 196.871094 239.628906 197.402344 239.585938 197.933594 C 197.386719 198.691406 155.160156 203.957031 114.070312 213.578125 C 114.570312 212.171875 115.089844 210.785156 115.613281 209.421875 C 130.808594 204.480469 142.382812 202.046875 155.996094 199.753906 C 185.296875 194.824219 210.554688 192.53125 240.117188 192.113281 C 239.953125 193.523438 239.832031 194.9375 239.71875 196.339844 Z M 241.410156 185.253906 C 220.089844 186.007812 198.398438 186.789062 176.855469 189.109375 C 198.613281 185.957031 220.484375 184.847656 241.703125 184.339844 C 241.597656 184.644531 241.5 184.945312 241.410156 185.253906 Z M 241.980469 183.589844 C 236.671875 183.71875 231.316406 183.882812 225.9375 184.097656 C 231.367188 183.769531 236.777344 183.464844 242.152344 183.164062 C 242.09375 183.304688 242.035156 183.449219 241.980469 183.589844 Z M 242.492188 182.40625 C 215.902344 183.90625 188.632812 185.46875 161.519531 189.363281 C 170.640625 187.371094 179.394531 185.808594 187.851562 184.652344 C 192.886719 184.121094 197.984375 183.671875 203.183594 183.3125 C 217.691406 182.683594 230.566406 182.015625 243.007812 181.378906 C 242.820312 181.71875 242.648438 182.054688 242.492188 182.40625 Z M 202.960938 182.242188 C 211.25 181.449219 219.429688 180.992188 227.464844 180.878906 C 219.316406 181.15625 211.117188 181.554688 202.960938 182.242188 Z M 215.390625 180.558594 C 225.03125 179.859375 234.695312 179.433594 244.347656 179.285156 C 244.078125 179.644531 243.824219 180.011719 243.582031 180.382812 C 234.410156 179.964844 224.996094 180.023438 215.390625 180.558594 Z M 173.222656 185.726562 C 156.550781 188.113281 140.480469 191.542969 124.210938 196.171875 C 128.34375 194.527344 132.734375 193.425781 137.21875 192.382812 C 153.863281 188.511719 170.722656 185.5 187.6875 183.335938 C 182.894531 184.015625 178.070312 184.820312 173.222656 185.726562 Z M 112.40625 127.199219 C 113.117188 126.621094 113.84375 126.066406 114.578125 125.507812 C 115.140625 125.078125 115.703125 124.644531 116.257812 124.203125 C 121.671875 146.90625 123.253906 170.167969 120.96875 193.386719 C 118.726562 197.972656 116.625 202.765625 114.644531 207.820312 C 113.710938 189.28125 110.683594 170.632812 105.636719 152.359375 C 104.445312 148.050781 102.683594 144.296875 100.925781 140.875 C 103.9375 135.609375 107.808594 130.921875 112.40625 127.199219 Z M 100.722656 197.746094 C 98.054688 190.316406 95.300781 182.632812 94.191406 175.082031 C 93.890625 173.058594 93.734375 171.015625 93.691406 168.960938 L 99.734375 190.25 C 102.953125 201.574219 106.265625 213.273438 108.683594 225.015625 C 108.648438 225.03125 108.609375 225.046875 108.566406 225.0625 L 108.667969 225.324219 C 108.40625 226.207031 108.160156 227.105469 107.90625 228.003906 C 107.882812 217.699219 104.257812 207.609375 100.722656 197.746094 Z M 201.054688 228.664062 C 204.675781 228.6875 208.230469 228.746094 211.738281 229.007812 C 208.050781 229.121094 204.359375 229.261719 200.667969 229.441406 C 188.601562 229.039062 176.496094 229.152344 164.492188 229.808594 C 164.035156 229.675781 163.570312 229.539062 163.113281 229.40625 C 175.710938 228.851562 188.457031 228.597656 201.054688 228.664062 Z M 190.976562 229.96875 C 187.148438 230.199219 183.335938 230.476562 179.523438 230.777344 C 176.445312 230.902344 173.367188 231.082031 170.296875 231.351562 L 170.3125 231.496094 C 169.097656 231.152344 167.882812 230.804688 166.679688 230.453125 C 174.753906 230.050781 182.863281 229.886719 190.976562 229.96875 Z M 179.449219 231.519531 C 184.203125 231.324219 188.96875 231.292969 193.722656 231.441406 C 189.65625 231.683594 185.589844 232.019531 181.546875 232.46875 C 179.320312 232.519531 177.089844 232.605469 174.871094 232.730469 C 174.078125 232.527344 173.292969 232.320312 172.496094 232.109375 C 174.820312 231.890625 177.132812 231.703125 179.449219 231.519531 Z M 195.964844 233.382812 C 191.542969 233.382812 186.667969 233.375 181.132812 233.253906 C 181.269531 233.242188 181.410156 233.226562 181.546875 233.210938 C 186.347656 233.097656 191.15625 233.15625 195.964844 233.382812 Z M 200.59375 235.277344 C 194.707031 235.808594 188.398438 235.472656 181.832031 234.257812 C 188.097656 234.0625 194.375 234.402344 200.59375 235.277344 Z M 197.355469 234.125 C 200.59375 234.125 203.714844 234.132812 206.765625 234.183594 C 206.964844 234.207031 207.167969 234.230469 207.371094 234.25 C 206.066406 234.535156 204.742188 234.777344 203.386719 234.964844 C 201.386719 234.625 199.378906 234.347656 197.355469 234.125 Z M 210.304688 233.523438 C 209.152344 233.488281 207.992188 233.464844 206.816406 233.441406 C 201.140625 232.875 195.433594 232.542969 189.71875 232.445312 C 193.664062 232.148438 197.625 231.945312 201.582031 231.855469 C 205.027344 232.101562 208.464844 232.4375 211.886719 232.867188 C 211.699219 232.976562 211.496094 233.097656 211.296875 233.21875 C 210.964844 233.316406 210.636719 233.425781 210.304688 233.523438 Z M 212.996094 232.25 C 211.78125 232.09375 210.5625 231.929688 209.339844 231.796875 C 210.824219 231.808594 212.304688 231.832031 213.78125 231.878906 C 213.542969 231.980469 213.28125 232.109375 212.996094 232.25 Z M 201.609375 231.105469 C 198.425781 230.882812 195.238281 230.714844 192.046875 230.640625 C 194.914062 230.46875 197.792969 230.320312 200.660156 230.183594 C 206.097656 230.371094 211.519531 230.65625 216.921875 231.0625 C 216.800781 231.121094 216.679688 231.179688 216.554688 231.234375 C 211.585938 231.03125 206.597656 230.984375 201.609375 231.105469 Z M 209.347656 229.832031 C 211.910156 229.742188 214.472656 229.667969 217.023438 229.609375 C 217.722656 229.710938 218.410156 229.839844 219.105469 229.976562 C 218.835938 230.117188 218.574219 230.273438 218.296875 230.417969 C 215.316406 230.183594 212.335938 229.996094 209.347656 229.832031 Z M 217.078125 228.867188 C 215.78125 228.671875 214.476562 228.5 213.167969 228.378906 C 215.917969 228.445312 218.664062 228.523438 221.40625 228.625 L 221.4375 227.886719 C 201.320312 227.121094 180.953125 227.429688 160.859375 228.753906 C 160.035156 228.515625 159.210938 228.28125 158.378906 228.050781 C 179.941406 225.257812 201.960938 226.289062 223.316406 227.359375 C 222.613281 227.855469 221.894531 228.328125 221.160156 228.785156 C 219.796875 228.8125 218.433594 228.835938 217.078125 228.867188 Z M 156.523438 227.546875 C 155.796875 227.351562 155.070312 227.167969 154.335938 226.980469 C 159.023438 226.671875 163.71875 226.433594 168.429688 226.253906 C 164.453125 226.566406 160.476562 226.992188 156.523438 227.546875 Z M 223.742188 226.640625 L 223.757812 226.453125 C 199.917969 224.746094 175.734375 224.722656 151.886719 226.386719 C 151.414062 226.273438 150.941406 226.171875 150.46875 226.066406 C 175.523438 223.300781 200.945312 223.03125 226.050781 225.269531 C 225.480469 225.75 224.890625 226.214844 224.289062 226.664062 C 224.109375 226.664062 223.929688 226.648438 223.742188 226.640625 Z M 149.488281 225.445312 L 149.535156 225.863281 C 149.097656 225.773438 148.65625 225.691406 148.214844 225.609375 C 148.636719 225.546875 149.0625 225.496094 149.488281 225.445312 Z M 149.96875 225.375 C 175.839844 222.042969 202.105469 221.375 228.109375 223.40625 C 227.691406 223.8125 227.257812 224.199219 226.8125 224.589844 C 201.296875 222.269531 175.441406 222.53125 149.96875 225.375 Z M 146.109375 225.136719 L 146.125 225.226562 C 145.640625 225.144531 145.152344 225.078125 144.664062 225 C 152.703125 223.726562 161.816406 222.941406 171.410156 222.484375 C 162.949219 223.085938 154.507812 223.96875 146.109375 225.136719 Z M 228.8125 222.71875 C 225.609375 222.460938 222.402344 222.246094 219.191406 222.074219 C 222.378906 222.117188 225.511719 222.171875 228.566406 222.222656 L 228.582031 221.480469 C 200.667969 221.023438 166.085938 220.457031 142.132812 224.671875 C 141.558594 224.605469 140.980469 224.53125 140.402344 224.484375 C 139.445312 224.402344 138.449219 224.359375 137.445312 224.335938 C 139.046875 223.902344 140.660156 223.503906 142.277344 223.152344 C 144.84375 222.964844 147.398438 222.800781 149.929688 222.648438 C 176.617188 221.003906 204.210938 219.300781 231.398438 219.839844 C 230.582031 220.828125 229.71875 221.789062 228.8125 222.71875 Z M 238.035156 207.347656 C 211.460938 208.050781 184.554688 209.574219 158.074219 211.878906 C 142.222656 213.257812 126.757812 214.921875 111.957031 219.773438 C 112.160156 219.160156 112.355469 218.539062 112.554688 217.921875 C 123.074219 214.222656 134.300781 212.441406 144.050781 211.054688 C 175.320312 206.621094 207.183594 204.359375 238.769531 204.316406 C 238.753906 204.398438 238.738281 204.480469 238.722656 204.5625 C 238.542969 205.503906 238.304688 206.425781 238.035156 207.347656 Z M 244.804688 178.714844 L 244.804688 178.535156 C 208.589844 179.035156 172.332031 183.457031 137.054688 191.65625 C 131.46875 192.953125 126.03125 194.34375 121.011719 196.773438 C 121.164062 196.441406 121.320312 196.121094 121.476562 195.796875 C 164.242188 180.847656 210.441406 177.808594 246.496094 176.96875 C 245.890625 177.507812 245.320312 178.085938 244.804688 178.714844 Z M 252.921875 171.71875 C 251.933594 172.625 250.835938 173.457031 249.777344 174.273438 C 248.960938 174.894531 248.136719 175.53125 247.335938 176.207031 C 211.296875 177.015625 164.925781 179.964844 121.910156 194.855469 C 124.277344 189.957031 126.789062 185.296875 129.429688 180.804688 C 150.785156 173.238281 163.710938 170.132812 189.28125 166.394531 C 219.464844 161.980469 242.910156 160.910156 258.953125 163.226562 C 257.550781 166.386719 255.621094 169.253906 252.921875 171.71875 Z M 262.628906 144.351562 C 221.316406 141.027344 173.847656 145.773438 146.476562 155.914062 C 147.953125 153.996094 149.460938 152.089844 150.988281 150.179688 C 158.394531 146.222656 166.910156 144.835938 175.710938 143.683594 C 204.507812 139.902344 233.832031 137.960938 262.878906 138.007812 L 262.878906 137.265625 C 233.78125 137.234375 204.441406 139.160156 175.613281 142.949219 C 167.324219 144.035156 159.277344 145.332031 152.125 148.769531 C 156.957031 142.792969 162.027344 136.800781 167.316406 130.585938 C 171.300781 129.453125 175.402344 128.855469 179.613281 128.308594 C 207.347656 124.691406 235.578125 123.28125 263.535156 124.113281 C 263.175781 128.152344 263.050781 132.253906 262.929688 136.3125 C 262.855469 139.03125 262.773438 141.722656 262.628906 144.351562 Z M 264.457031 117.140625 C 233.726562 113.777344 203.003906 116.015625 173.105469 123.785156 C 174.453125 122.195312 175.808594 120.59375 177.179688 118.96875 L 177.292969 118.984375 C 177.296875 118.929688 177.304688 118.871094 177.304688 118.816406 C 179.375 116.363281 181.464844 113.859375 183.582031 111.289062 C 187.453125 110.085938 191.453125 109.253906 195.230469 108.542969 C 219.652344 103.921875 244.632812 102.152344 269.460938 103.261719 C 269.3125 103.507812 269.148438 103.742188 269.003906 103.988281 C 266.691406 108.011719 265.304688 112.464844 264.457031 117.140625 Z M 279.894531 88.949219 C 278.375 91.578125 276.425781 93.988281 274.546875 96.320312 C 272.960938 98.296875 271.332031 100.332031 269.917969 102.519531 C 244.886719 101.367188 219.714844 103.140625 195.09375 107.792969 C 191.648438 108.445312 188.007812 109.195312 184.4375 110.242188 C 184.640625 109.996094 184.839844 109.753906 185.035156 109.507812 C 189.558594 103.996094 194.089844 98.683594 198.675781 93.511719 C 226.28125 86.761719 254.609375 82.050781 282.914062 79.496094 C 282.484375 82.90625 281.558594 86.085938 279.894531 88.949219 Z M 283.210938 73.835938 C 271.511719 74.890625 259.671875 76.140625 247.996094 77.5625 C 233.855469 79.285156 218.933594 81.390625 205.117188 86.386719 C 206.507812 84.867188 207.910156 83.359375 209.308594 81.863281 C 233.511719 76.378906 258.339844 73.078125 283.121094 72.050781 L 283.09375 71.308594 C 258.632812 72.320312 234.125 75.550781 210.222656 80.898438 C 215.910156 74.859375 221.714844 68.964844 227.699219 63.117188 C 230.957031 61.828125 234.425781 61.054688 237.792969 60.308594 C 251.457031 57.273438 266.90625 53.851562 281.40625 57.707031 C 282.328125 63.160156 283.160156 68.652344 283.210938 73.835938 Z M 285.4375 14.453125 C 284.082031 14.535156 282.726562 14.722656 281.394531 15 C 282.574219 14.003906 283.765625 13 284.964844 11.996094 L 287.339844 11.4375 C 286.6875 12.386719 286.050781 13.390625 285.4375 14.453125 Z M 285.4375 14.453125"/></clipPath><linearGradient x1="352.628" gradientTransform="matrix(.74898 0 0 .74898 -3.491 -3.491)" y1="523.227" x2="157.378" gradientUnits="userSpaceOnUse" y2="-13.22" xlink:type="simple" xlink:actuate="onLoad" id="c" xlink:show="other"><stop stop-color="#BC7F86" offset="0"/><stop stop-color="#BC7F86" offset=".125"/><stop stop-color="#BC7F86" offset=".156"/><stop stop-color="#BC7F86" offset=".172"/><stop stop-color="#BD8086" offset=".176"/><stop stop-color="#BE8087" offset=".18"/><stop stop-color="#BF8288" offset=".184"/><stop stop-color="#C18389" offset=".188"/><stop stop-color="#C3858B" offset=".191"/><stop stop-color="#C5878C" offset=".195"/><stop stop-color="#C7888D" offset=".199"/><stop stop-color="#C88A8E" offset=".203"/><stop stop-color="#CA8B8F" offset=".207"/><stop stop-color="#CC8D91" offset=".211"/><stop stop-color="#CE8E92" offset=".215"/><stop stop-color="#CF9093" offset=".219"/><stop stop-color="#D19194" offset=".223"/><stop stop-color="#D39395" offset=".227"/><stop stop-color="#D59497" offset=".23"/><stop stop-color="#D69698" offset=".234"/><stop stop-color="#D89799" offset=".238"/><stop stop-color="#DA999A" offset=".242"/><stop stop-color="#DC9A9B" offset=".246"/><stop stop-color="#DE9C9D" offset=".25"/><stop stop-color="#DF9D9E" offset=".254"/><stop stop-color="#E19E9F" offset=".258"/><stop stop-color="#E29FA0" offset=".262"/><stop stop-color="#E4A0A1" offset=".266"/><stop stop-color="#E5A2A2" offset=".27"/><stop stop-color="#E6A3A3" offset=".273"/><stop stop-color="#E8A4A4" offset=".277"/><stop stop-color="#E9A5A5" offset=".281"/><stop stop-color="#EBA7A6" offset=".285"/><stop stop-color="#ECA8A7" offset=".289"/><stop stop-color="#EEA9A8" offset=".293"/><stop stop-color="#EFAAA9" offset=".297"/><stop stop-color="#F1ABAA" offset=".301"/><stop stop-color="#F2ADAB" offset=".305"/><stop stop-color="#F4AEAC" offset=".309"/><stop stop-color="#F5AFAD" offset=".313"/><stop stop-color="#F5B0AE" offset=".316"/><stop stop-color="#F5B1AF" offset=".32"/><stop stop-color="#F5B2B0" offset=".324"/><stop stop-color="#F5B4B2" offset=".328"/><stop stop-color="#F6B5B3" offset=".332"/><stop stop-color="#F6B6B4" offset=".336"/><stop stop-color="#F6B7B5" offset=".34"/><stop stop-color="#F6B8B6" offset=".344"/><stop stop-color="#F6B9B8" offset=".348"/><stop stop-color="#F6BAB9" offset=".352"/><stop stop-color="#F6BBBA" offset=".355"/><stop stop-color="#F6BDBB" offset=".359"/><stop stop-color="#F6BEBC" offset=".363"/><stop stop-color="#F6BFBD" offset=".367"/><stop stop-color="#F6C0BF" offset=".371"/><stop stop-color="#F7C1C0" offset=".375"/><stop stop-color="#F7C2C1" offset=".379"/><stop stop-color="#F7C3C2" offset=".383"/><stop stop-color="#F7C5C3" offset=".387"/><stop stop-color="#F7C6C5" offset=".391"/><stop stop-color="#F7C7C6" offset=".395"/><stop stop-color="#F7C8C7" offset=".398"/><stop stop-color="#F7C9C8" offset=".402"/><stop stop-color="#F7CAC9" offset=".406"/><stop stop-color="#F7CBCA" offset=".41"/><stop stop-color="#F7CCCB" offset=".414"/><stop stop-color="#F8CDCC" offset=".418"/><stop stop-color="#F8CECD" offset=".422"/><stop stop-color="#F8CFCE" offset=".426"/><stop stop-color="#F8CFCF" offset=".43"/><stop stop-color="#F8D0D0" offset=".434"/><stop stop-color="#F8D1D1" offset=".438"/><stop stop-color="#F8D2D2" offset=".441"/><stop stop-color="#F8D3D3" offset=".445"/><stop stop-color="#F8D4D4" offset=".449"/><stop stop-color="#F8D5D5" offset=".453"/><stop stop-color="#F8D6D6" offset=".457"/><stop stop-color="#F9D7D7" offset=".461"/><stop stop-color="#F9D8D8" offset=".465"/><stop stop-color="#F9D9D9" offset=".469"/><stop stop-color="#F9DADA" offset=".473"/><stop stop-color="#F9DBDB" offset=".477"/><stop stop-color="#F8D9D9" offset=".48"/><stop stop-color="#F6D8D8" offset=".484"/><stop stop-color="#F5D5D6" offset=".488"/><stop stop-color="#F4D3D4" offset=".492"/><stop stop-color="#F2D1D2" offset=".496"/><stop stop-color="#F1CFD0" offset=".5"/><stop stop-color="#EFCDCE" offset=".504"/><stop stop-color="#EECBCD" offset=".508"/><stop stop-color="#ECC9CB" offset=".512"/><stop stop-color="#EBC7C9" offset=".516"/><stop stop-color="#E9C5C7" offset=".52"/><stop stop-color="#E8C3C5" offset=".523"/><stop stop-color="#E7C1C3" offset=".527"/><stop stop-color="#E5BFC1" offset=".531"/><stop stop-color="#E4BDBF" offset=".535"/><stop stop-color="#E2BBBE" offset=".539"/><stop stop-color="#E1B9BC" offset=".543"/><stop stop-color="#DFB7BA" offset=".547"/><stop stop-color="#DEB5B8" offset=".551"/><stop stop-color="#DDB2B6" offset=".555"/><stop stop-color="#DBB0B4" offset=".559"/><stop stop-color="#DAAEB2" offset=".563"/><stop stop-color="#D8ACB0" offset=".566"/><stop stop-color="#D7AAAF" offset=".57"/><stop stop-color="#D5A8AD" offset=".574"/><stop stop-color="#D4A6AB" offset=".578"/><stop stop-color="#D2A4A9" offset=".582"/><stop stop-color="#D1A2A7" offset=".586"/><stop stop-color="#D0A0A5" offset=".59"/><stop stop-color="#CE9EA3" offset=".594"/><stop stop-color="#CD9CA1" offset=".598"/><stop stop-color="#CB9AA0" offset=".602"/><stop stop-color="#CA989E" offset=".605"/><stop stop-color="#C8969C" offset=".609"/><stop stop-color="#C7949A" offset=".613"/><stop stop-color="#C69298" offset=".617"/><stop stop-color="#C48F96" offset=".621"/><stop stop-color="#C38D94" offset=".625"/><stop stop-color="#C18B92" offset=".629"/><stop stop-color="#C08991" offset=".633"/><stop stop-color="#BE878F" offset=".637"/><stop stop-color="#BD858D" offset=".641"/><stop stop-color="#BB838B" offset=".645"/><stop stop-color="#BA8189" offset=".648"/><stop stop-color="#B97F87" offset=".652"/><stop stop-color="#B77D85" offset=".656"/><stop stop-color="#B67B83" offset=".66"/><stop stop-color="#B47982" offset=".664"/><stop stop-color="#B57982" offset=".668"/><stop stop-color="#B57982" offset=".672"/><stop stop-color="#B77C84" offset=".676"/><stop stop-color="#B97E86" offset=".68"/><stop stop-color="#BB8088" offset=".684"/><stop stop-color="#BD828A" offset=".688"/><stop stop-color="#BE848C" offset=".691"/><stop stop-color="#C0868E" offset=".695"/><stop stop-color="#C28890" offset=".699"/><stop stop-color="#C48A92" offset=".703"/><stop stop-color="#C68C94" offset=".707"/><stop stop-color="#C88F96" offset=".711"/><stop stop-color="#CA9199" offset=".715"/><stop stop-color="#CC939B" offset=".719"/><stop stop-color="#CD959D" offset=".723"/><stop stop-color="#CF979F" offset=".727"/><stop stop-color="#D199A1" offset=".73"/><stop stop-color="#D39BA3" offset=".734"/><stop stop-color="#D59DA5" offset=".738"/><stop stop-color="#D79FA7" offset=".742"/><stop stop-color="#D8A1A9" offset=".746"/><stop stop-color="#DAA3AB" offset=".75"/><stop stop-color="#DCA5AC" offset=".754"/><stop stop-color="#DEA7AE" offset=".758"/><stop stop-color="#E0A9B0" offset=".762"/><stop stop-color="#E1ABB2" offset=".766"/><stop stop-color="#E3ADB4" offset=".77"/><stop stop-color="#E5AFB6" offset=".773"/><stop stop-color="#E6B1B8" offset=".777"/><stop stop-color="#E8B3BA" offset=".781"/><stop stop-color="#EAB5BB" offset=".785"/><stop stop-color="#ECB7BD" offset=".789"/><stop stop-color="#EDB9BF" offset=".793"/><stop stop-color="#EFBBC1" offset=".797"/><stop stop-color="#F1BCC3" offset=".801"/><stop stop-color="#F3BEC5" offset=".805"/><stop stop-color="#F4C0C7" offset=".809"/><stop stop-color="#F6C2C9" offset=".813"/><stop stop-color="#F8C4CB" offset=".816"/><stop stop-color="#FAC6CC" offset=".82"/><stop stop-color="#FBC8CE" offset=".824"/><stop stop-color="#FDCAD0" offset=".828"/><stop stop-color="#FECBD1" offset=".832"/><stop stop-color="#FFCCD2" offset=".836"/><stop stop-color="#FFCCD2" offset=".844"/><stop stop-color="#FFCCD2" offset=".875"/><stop stop-color="#FFCCD2" offset="1"/></linearGradient></defs><path fill="#FFF" d="M-37.5 -37.5H412.5V412.5H-37.5z"/><path fill="#FFF" d="M-37.5 -37.5H412.5V412.5H-37.5z"/><path fill="#FEE" d="M-37.5 -37.5H412.5V412.5H-37.5z"/><g clip-path="url(#a)"><g clip-path="url(#b)"><path fill="url(#c)" d="M 76.890625 0.253906 L 76.890625 374.753906 L 298.109375 374.753906 L 298.109375 0.253906 Z M 76.890625 0.253906"/></g></g></svg>